<svg xmlns="http://www.w3.org/2000/svg" viewBox="0 0 120 120">
  <defs>
    <linearGradient id="wingGradient" x1="0" x2="1" y1="0" y2="1">
      <stop offset="0%" stop-color="#29C38A" />
      <stop offset="100%" stop-color="#1AA57A" />
    </linearGradient>
  </defs>
  <path
    fill="url(#wingGradient)"
    d="M60 18c-20.4 0-40.6 12.7-51.1 31.6 8.6-4.2 18.2-4.6 26.7-1.1 5.5 2.3 10.4 6 14.5 10.8L60 64l9.9-10.7c4-4.8 8.9-8.5 14.4-10.8 8.5-3.5 18.1-3.1 26.7 1.1C100.5 30.7 80.3 18 60 18Z"
  />
  <circle cx="45" cy="74" r="11" fill="#0E2D3C" />
  <circle cx="75" cy="74" r="11" fill="#0E2D3C" />
  <path
    fill="#0E2D3C"
    d="M60 65c-5.8 0-10.6 4.2-11.5 9.8l0.1 0.1c2.8-1.7 6-2.5 9.2-2.5h4.4c3.2 0 6.4 0.8 9.2 2.5l0.1-0.1C70.6 69.2 65.8 65 60 65Z"
  />
</svg>
